<svg xmlns="http://www.w3.org/2000/svg" width="48" height="48" viewBox="0 0 48 48" fill="none">
  <defs>
    <linearGradient id="lukaHead" x1="13" y1="9" x2="35" y2="38" gradientUnits="userSpaceOnUse">
      <stop offset="0" stop-color="#202024"/>
      <stop offset="0.62" stop-color="#0a0a0c"/>
      <stop offset="1" stop-color="#050506"/>
    </linearGradient>
    <linearGradient id="lukaScreen" x1="24" y1="18" x2="24" y2="30" gradientUnits="userSpaceOnUse">
      <stop offset="0" stop-color="#0d1417"/>
      <stop offset="1" stop-color="#010102"/>
    </linearGradient>
  </defs>
  <rect width="48" height="48" rx="16" fill="#030304"/>
  <circle cx="12" cy="23.5" r="4" fill="url(#lukaHead)" stroke="rgba(255,255,255,0.12)"/>
  <circle cx="36" cy="23.5" r="4" fill="url(#lukaHead)" stroke="rgba(255,255,255,0.12)"/>
  <path d="M13 20c0-7 4.8-11 11-11s11 4 11 11v7c0 7-4.8 11-11 11s-11-4-11-11v-7Z" fill="url(#lukaHead)" stroke="rgba(255,255,255,0.12)"/>
  <rect x="15.5" y="18" width="17" height="12" rx="5" fill="url(#lukaScreen)" stroke="rgba(255,255,255,0.08)"/>
  <path d="M19 23.5c1.5-2 3.5-2 5 0M24 27c1.5 1.6 3.1 1.6 4.6 0M29 23.5c-1.5-2-3.5-2-5 0" stroke="#4fd8ff" stroke-width="2" stroke-linecap="round"/>
</svg>
